<svg width="1363" height="163" viewBox="0 0 1363 163" fill="none" xmlns="http://www.w3.org/2000/svg">
<path d="M0 15C0 6.71573 6.71573 0 15 0H37V163H15C6.71573 163 0 156.284 0 148V15Z" fill="#424242"/>
<rect width="1097" height="163" transform="translate(37)" fill="#F0F0F0"/>
<path d="M108.41 43.9375V61H104.895L98.0391 49.5625V61H94.5234V43.9375H98.0391L104.906 55.3867V43.9375H108.41ZM117.094 61.2344C116.109 61.2344 115.227 61.0781 114.445 60.7656C113.664 60.4453 113 60.0039 112.453 59.4414C111.914 58.8789 111.5 58.2266 111.211 57.4844C110.922 56.7344 110.777 55.9375 110.777 55.0938V54.625C110.777 53.6641 110.914 52.7852 111.188 51.9883C111.461 51.1914 111.852 50.5 112.359 49.9141C112.875 49.3281 113.5 48.8789 114.234 48.5664C114.969 48.2461 115.797 48.0859 116.719 48.0859C117.617 48.0859 118.414 48.2344 119.109 48.5312C119.805 48.8281 120.387 49.25 120.855 49.7969C121.332 50.3438 121.691 51 121.934 51.7656C122.176 52.5234 122.297 53.3672 122.297 54.2969V55.7031H112.219V53.4531H118.98V53.1953C118.98 52.7266 118.895 52.3086 118.723 51.9414C118.559 51.5664 118.309 51.2695 117.973 51.0508C117.637 50.832 117.207 50.7227 116.684 50.7227C116.238 50.7227 115.855 50.8203 115.535 51.0156C115.215 51.2109 114.953 51.4844 114.75 51.8359C114.555 52.1875 114.406 52.6016 114.305 53.0781C114.211 53.5469 114.164 54.0625 114.164 54.625V55.0938C114.164 55.6016 114.234 56.0703 114.375 56.5C114.523 56.9297 114.73 57.3008 114.996 57.6133C115.27 57.9258 115.598 58.168 115.98 58.3398C116.371 58.5117 116.812 58.5977 117.305 58.5977C117.914 58.5977 118.48 58.4805 119.004 58.2461C119.535 58.0039 119.992 57.6406 120.375 57.1562L122.016 58.9375C121.75 59.3203 121.387 59.6875 120.926 60.0391C120.473 60.3906 119.926 60.6797 119.285 60.9062C118.645 61.125 117.914 61.2344 117.094 61.2344ZM130.43 48.3203V50.7109H123.047V48.3203H130.43ZM124.875 45.1914H128.25V57.1797C128.25 57.5469 128.297 57.8281 128.391 58.0234C128.492 58.2188 128.641 58.3555 128.836 58.4336C129.031 58.5039 129.277 58.5391 129.574 58.5391C129.785 58.5391 129.973 58.5312 130.137 58.5156C130.309 58.4922 130.453 58.4688 130.57 58.4453L130.582 60.9297C130.293 61.0234 129.98 61.0977 129.645 61.1523C129.309 61.207 128.938 61.2344 128.531 61.2344C127.789 61.2344 127.141 61.1133 126.586 60.8711C126.039 60.6211 125.617 60.2227 125.32 59.6758C125.023 59.1289 124.875 58.4102 124.875 57.5195V45.1914ZM136.652 61H133.254V47.3477C133.254 46.3555 133.461 45.5195 133.875 44.8398C134.289 44.1523 134.887 43.6328 135.668 43.2812C136.449 42.9297 137.391 42.7539 138.492 42.7539C138.953 42.7539 139.527 42.7773 140.215 42.8242C140.91 42.8633 141.617 42.9141 142.336 42.9766C143.062 43.0312 143.699 43.0898 144.246 43.1523L142.84 45.8125C142.137 45.6875 141.461 45.5898 140.812 45.5195C140.164 45.4492 139.547 45.4141 138.961 45.4141C138.461 45.4141 138.039 45.4883 137.695 45.6367C137.352 45.7852 137.09 46.0039 136.91 46.293C136.738 46.5742 136.652 46.9258 136.652 47.3477V61ZM140.871 61V43.1523H144.246V61H140.871ZM139.184 48.3203V50.7109H131.367V48.3203H139.184ZM150.633 48.3203V61H147.246V48.3203H150.633ZM147.035 45.0156C147.035 44.5234 147.207 44.1172 147.551 43.7969C147.895 43.4766 148.355 43.3164 148.934 43.3164C149.504 43.3164 149.961 43.4766 150.305 43.7969C150.656 44.1172 150.832 44.5234 150.832 45.0156C150.832 45.5078 150.656 45.9141 150.305 46.2344C149.961 46.5547 149.504 46.7148 148.934 46.7148C148.355 46.7148 147.895 46.5547 147.551 46.2344C147.207 45.9141 147.035 45.5078 147.035 45.0156ZM158.66 58.5977C159.074 58.5977 159.441 58.5195 159.762 58.3633C160.082 58.1992 160.332 57.9727 160.512 57.6836C160.699 57.3867 160.797 57.0391 160.805 56.6406H163.98C163.973 57.5312 163.734 58.3242 163.266 59.0195C162.797 59.707 162.168 60.25 161.379 60.6484C160.59 61.0391 159.707 61.2344 158.73 61.2344C157.746 61.2344 156.887 61.0703 156.152 60.7422C155.426 60.4141 154.82 59.9609 154.336 59.3828C153.852 58.7969 153.488 58.1172 153.246 57.3438C153.004 56.5625 152.883 55.7266 152.883 54.8359V54.4961C152.883 53.5977 153.004 52.7617 153.246 51.9883C153.488 51.207 153.852 50.5273 154.336 49.9492C154.82 49.3633 155.426 48.9062 156.152 48.5781C156.879 48.25 157.73 48.0859 158.707 48.0859C159.746 48.0859 160.656 48.2852 161.438 48.6836C162.227 49.082 162.844 49.6523 163.289 50.3945C163.742 51.1289 163.973 52 163.98 53.0078H160.805C160.797 52.5859 160.707 52.2031 160.535 51.8594C160.371 51.5156 160.129 51.2422 159.809 51.0391C159.496 50.8281 159.109 50.7227 158.648 50.7227C158.156 50.7227 157.754 50.8281 157.441 51.0391C157.129 51.2422 156.887 51.5234 156.715 51.8828C156.543 52.2344 156.422 52.6367 156.352 53.0898C156.289 53.5352 156.258 54.0039 156.258 54.4961V54.8359C156.258 55.3281 156.289 55.8008 156.352 56.2539C156.414 56.707 156.531 57.1094 156.703 57.4609C156.883 57.8125 157.129 58.0898 157.441 58.293C157.754 58.4961 158.16 58.5977 158.66 58.5977ZM172.125 43.9375H178.488C179.793 43.9375 180.914 44.1328 181.852 44.5234C182.797 44.9141 183.523 45.4922 184.031 46.2578C184.539 47.0234 184.793 47.9648 184.793 49.082C184.793 49.9961 184.637 50.7812 184.324 51.4375C184.02 52.0859 183.586 52.6289 183.023 53.0664C182.469 53.4961 181.816 53.8398 181.066 54.0977L179.953 54.6836H174.422L174.398 51.9414H178.512C179.129 51.9414 179.641 51.832 180.047 51.6133C180.453 51.3945 180.758 51.0898 180.961 50.6992C181.172 50.3086 181.277 49.8555 181.277 49.3398C181.277 48.793 181.176 48.3203 180.973 47.9219C180.77 47.5234 180.461 47.2188 180.047 47.0078C179.633 46.7969 179.113 46.6914 178.488 46.6914H175.641V61H172.125V43.9375ZM181.664 61L177.773 53.3945L181.488 53.3711L185.426 60.8359V61H181.664ZM193.125 61.2344C192.141 61.2344 191.258 61.0781 190.477 60.7656C189.695 60.4453 189.031 60.0039 188.484 59.4414C187.945 58.8789 187.531 58.2266 187.242 57.4844C186.953 56.7344 186.809 55.9375 186.809 55.0938V54.625C186.809 53.6641 186.945 52.7852 187.219 51.9883C187.492 51.1914 187.883 50.5 188.391 49.9141C188.906 49.3281 189.531 48.8789 190.266 48.5664C191 48.2461 191.828 48.0859 192.75 48.0859C193.648 48.0859 194.445 48.2344 195.141 48.5312C195.836 48.8281 196.418 49.25 196.887 49.7969C197.363 50.3438 197.723 51 197.965 51.7656C198.207 52.5234 198.328 53.3672 198.328 54.2969V55.7031H188.25V53.4531H195.012V53.1953C195.012 52.7266 194.926 52.3086 194.754 51.9414C194.59 51.5664 194.34 51.2695 194.004 51.0508C193.668 50.832 193.238 50.7227 192.715 50.7227C192.27 50.7227 191.887 50.8203 191.566 51.0156C191.246 51.2109 190.984 51.4844 190.781 51.8359C190.586 52.1875 190.438 52.6016 190.336 53.0781C190.242 53.5469 190.195 54.0625 190.195 54.625V55.0938C190.195 55.6016 190.266 56.0703 190.406 56.5C190.555 56.9297 190.762 57.3008 191.027 57.6133C191.301 57.9258 191.629 58.168 192.012 58.3398C192.402 58.5117 192.844 58.5977 193.336 58.5977C193.945 58.5977 194.512 58.4805 195.035 58.2461C195.566 58.0039 196.023 57.6406 196.406 57.1562L198.047 58.9375C197.781 59.3203 197.418 59.6875 196.957 60.0391C196.504 60.3906 195.957 60.6797 195.316 60.9062C194.676 61.125 193.945 61.2344 193.125 61.2344ZM207.094 58.1406V52.4922C207.094 52.0859 207.027 51.7383 206.895 51.4492C206.762 51.1523 206.555 50.9219 206.273 50.7578C206 50.5938 205.645 50.5117 205.207 50.5117C204.832 50.5117 204.508 50.5781 204.234 50.7109C203.961 50.8359 203.75 51.0195 203.602 51.2617C203.453 51.4961 203.379 51.7734 203.379 52.0938H200.004C200.004 51.5547 200.129 51.043 200.379 50.5586C200.629 50.0742 200.992 49.6484 201.469 49.2812C201.945 48.9062 202.512 48.6133 203.168 48.4023C203.832 48.1914 204.574 48.0859 205.395 48.0859C206.379 48.0859 207.254 48.25 208.02 48.5781C208.785 48.9062 209.387 49.3984 209.824 50.0547C210.27 50.7109 210.492 51.5312 210.492 52.5156V57.9414C210.492 58.6367 210.535 59.207 210.621 59.6523C210.707 60.0898 210.832 60.4727 210.996 60.8008V61H207.586C207.422 60.6562 207.297 60.2266 207.211 59.7109C207.133 59.1875 207.094 58.6641 207.094 58.1406ZM207.539 53.2773L207.562 55.1875H205.676C205.23 55.1875 204.844 55.2383 204.516 55.3398C204.188 55.4414 203.918 55.5859 203.707 55.7734C203.496 55.9531 203.34 56.1641 203.238 56.4062C203.145 56.6484 203.098 56.9141 203.098 57.2031C203.098 57.4922 203.164 57.7539 203.297 57.9883C203.43 58.2148 203.621 58.3945 203.871 58.5273C204.121 58.6523 204.414 58.7148 204.75 58.7148C205.258 58.7148 205.699 58.6133 206.074 58.4102C206.449 58.207 206.738 57.957 206.941 57.6602C207.152 57.3633 207.262 57.082 207.27 56.8164L208.16 58.2461C208.035 58.5664 207.863 58.8984 207.645 59.2422C207.434 59.5859 207.164 59.9102 206.836 60.2148C206.508 60.5117 206.113 60.7578 205.652 60.9531C205.191 61.1406 204.645 61.2344 204.012 61.2344C203.207 61.2344 202.477 61.0742 201.82 60.7539C201.172 60.4258 200.656 59.9766 200.273 59.4062C199.898 58.8281 199.711 58.1719 199.711 57.4375C199.711 56.7734 199.836 56.1836 200.086 55.668C200.336 55.1523 200.703 54.7188 201.188 54.3672C201.68 54.0078 202.293 53.7383 203.027 53.5586C203.762 53.3711 204.613 53.2773 205.582 53.2773H207.539ZM218.332 58.5977C218.746 58.5977 219.113 58.5195 219.434 58.3633C219.754 58.1992 220.004 57.9727 220.184 57.6836C220.371 57.3867 220.469 57.0391 220.477 56.6406H223.652C223.645 57.5312 223.406 58.3242 222.938 59.0195C222.469 59.707 221.84 60.25 221.051 60.6484C220.262 61.0391 219.379 61.2344 218.402 61.2344C217.418 61.2344 216.559 61.0703 215.824 60.7422C215.098 60.4141 214.492 59.9609 214.008 59.3828C213.523 58.7969 213.16 58.1172 212.918 57.3438C212.676 56.5625 212.555 55.7266 212.555 54.8359V54.4961C212.555 53.5977 212.676 52.7617 212.918 51.9883C213.16 51.207 213.523 50.5273 214.008 49.9492C214.492 49.3633 215.098 48.9062 215.824 48.5781C216.551 48.25 217.402 48.0859 218.379 48.0859C219.418 48.0859 220.328 48.2852 221.109 48.6836C221.898 49.082 222.516 49.6523 222.961 50.3945C223.414 51.1289 223.645 52 223.652 53.0078H220.477C220.469 52.5859 220.379 52.2031 220.207 51.8594C220.043 51.5156 219.801 51.2422 219.48 51.0391C219.168 50.8281 218.781 50.7227 218.32 50.7227C217.828 50.7227 217.426 50.8281 217.113 51.0391C216.801 51.2422 216.559 51.5234 216.387 51.8828C216.215 52.2344 216.094 52.6367 216.023 53.0898C215.961 53.5352 215.93 54.0039 215.93 54.4961V54.8359C215.93 55.3281 215.961 55.8008 216.023 56.2539C216.086 56.707 216.203 57.1094 216.375 57.4609C216.555 57.8125 216.801 58.0898 217.113 58.293C217.426 58.4961 217.832 58.5977 218.332 58.5977ZM231.82 48.3203V50.7109H224.438V48.3203H231.82ZM226.266 45.1914H229.641V57.1797C229.641 57.5469 229.688 57.8281 229.781 58.0234C229.883 58.2188 230.031 58.3555 230.227 58.4336C230.422 58.5039 230.668 58.5391 230.965 58.5391C231.176 58.5391 231.363 58.5312 231.527 58.5156C231.699 58.4922 231.844 58.4688 231.961 58.4453L231.973 60.9297C231.684 61.0234 231.371 61.0977 231.035 61.1523C230.699 61.207 230.328 61.2344 229.922 61.2344C229.18 61.2344 228.531 61.1133 227.977 60.8711C227.43 60.6211 227.008 60.2227 226.711 59.6758C226.414 59.1289 226.266 58.4102 226.266 57.5195V45.1914ZM244.957 58.5977C245.371 58.5977 245.738 58.5195 246.059 58.3633C246.379 58.1992 246.629 57.9727 246.809 57.6836C246.996 57.3867 247.094 57.0391 247.102 56.6406H250.277C250.27 57.5312 250.031 58.3242 249.562 59.0195C249.094 59.707 248.465 60.25 247.676 60.6484C246.887 61.0391 246.004 61.2344 245.027 61.2344C244.043 61.2344 243.184 61.0703 242.449 60.7422C241.723 60.4141 241.117 59.9609 240.633 59.3828C240.148 58.7969 239.785 58.1172 239.543 57.3438C239.301 56.5625 239.18 55.7266 239.18 54.8359V54.4961C239.18 53.5977 239.301 52.7617 239.543 51.9883C239.785 51.207 240.148 50.5273 240.633 49.9492C241.117 49.3633 241.723 48.9062 242.449 48.5781C243.176 48.25 244.027 48.0859 245.004 48.0859C246.043 48.0859 246.953 48.2852 247.734 48.6836C248.523 49.082 249.141 49.6523 249.586 50.3945C250.039 51.1289 250.27 52 250.277 53.0078H247.102C247.094 52.5859 247.004 52.2031 246.832 51.8594C246.668 51.5156 246.426 51.2422 246.105 51.0391C245.793 50.8281 245.406 50.7227 244.945 50.7227C244.453 50.7227 244.051 50.8281 243.738 51.0391C243.426 51.2422 243.184 51.5234 243.012 51.8828C242.84 52.2344 242.719 52.6367 242.648 53.0898C242.586 53.5352 242.555 54.0039 242.555 54.4961V54.8359C242.555 55.3281 242.586 55.8008 242.648 56.2539C242.711 56.707 242.828 57.1094 243 57.4609C243.18 57.8125 243.426 58.0898 243.738 58.293C244.051 58.4961 244.457 58.5977 244.957 58.5977ZM255.797 43V61H252.41V43H255.797ZM258.047 54.7891V54.543C258.047 53.6133 258.18 52.7578 258.445 51.9766C258.711 51.1875 259.098 50.5039 259.605 49.9258C260.113 49.3477 260.738 48.8984 261.48 48.5781C262.223 48.25 263.074 48.0859 264.035 48.0859C264.996 48.0859 265.852 48.25 266.602 48.5781C267.352 48.8984 267.98 49.3477 268.488 49.9258C269.004 50.5039 269.395 51.1875 269.66 51.9766C269.926 52.7578 270.059 53.6133 270.059 54.543V54.7891C270.059 55.7109 269.926 56.5664 269.66 57.3555C269.395 58.1367 269.004 58.8203 268.488 59.4062C267.98 59.9844 267.355 60.4336 266.613 60.7539C265.871 61.0742 265.02 61.2344 264.059 61.2344C263.098 61.2344 262.242 61.0742 261.492 60.7539C260.75 60.4336 260.121 59.9844 259.605 59.4062C259.098 58.8203 258.711 58.1367 258.445 57.3555C258.18 56.5664 258.047 55.7109 258.047 54.7891ZM261.422 54.543V54.7891C261.422 55.3203 261.469 55.8164 261.562 56.2773C261.656 56.7383 261.805 57.1445 262.008 57.4961C262.219 57.8398 262.492 58.1094 262.828 58.3047C263.164 58.5 263.574 58.5977 264.059 58.5977C264.527 58.5977 264.93 58.5 265.266 58.3047C265.602 58.1094 265.871 57.8398 266.074 57.4961C266.277 57.1445 266.426 56.7383 266.52 56.2773C266.621 55.8164 266.672 55.3203 266.672 54.7891V54.543C266.672 54.0273 266.621 53.543 266.52 53.0898C266.426 52.6289 266.273 52.2227 266.062 51.8711C265.859 51.5117 265.59 51.2305 265.254 51.0273C264.918 50.8242 264.512 50.7227 264.035 50.7227C263.559 50.7227 263.152 50.8242 262.816 51.0273C262.488 51.2305 262.219 51.5117 262.008 51.8711C261.805 52.2227 261.656 52.6289 261.562 53.0898C261.469 53.543 261.422 54.0273 261.422 54.543ZM275.438 51.0273V61H272.062V48.3203H275.227L275.438 51.0273ZM274.945 54.2148H274.031C274.031 53.2773 274.152 52.4336 274.395 51.6836C274.637 50.9258 274.977 50.2812 275.414 49.75C275.852 49.2109 276.371 48.8008 276.973 48.5195C277.582 48.2305 278.262 48.0859 279.012 48.0859C279.605 48.0859 280.148 48.1719 280.641 48.3438C281.133 48.5156 281.555 48.7891 281.906 49.1641C282.266 49.5391 282.539 50.0352 282.727 50.6523C282.922 51.2695 283.02 52.0234 283.02 52.9141V61H279.621V52.9023C279.621 52.3398 279.543 51.9023 279.387 51.5898C279.23 51.2773 279 51.0586 278.695 50.9336C278.398 50.8008 278.031 50.7344 277.594 50.7344C277.141 50.7344 276.746 50.8242 276.41 51.0039C276.082 51.1836 275.809 51.4336 275.59 51.7539C275.379 52.0664 275.219 52.4336 275.109 52.8555C275 53.2773 274.945 53.7305 274.945 54.2148ZM291.422 61.2344C290.438 61.2344 289.555 61.0781 288.773 60.7656C287.992 60.4453 287.328 60.0039 286.781 59.4414C286.242 58.8789 285.828 58.2266 285.539 57.4844C285.25 56.7344 285.105 55.9375 285.105 55.0938V54.625C285.105 53.6641 285.242 52.7852 285.516 51.9883C285.789 51.1914 286.18 50.5 286.688 49.9141C287.203 49.3281 287.828 48.8789 288.562 48.5664C289.297 48.2461 290.125 48.0859 291.047 48.0859C291.945 48.0859 292.742 48.2344 293.438 48.5312C294.133 48.8281 294.715 49.25 295.184 49.7969C295.66 50.3438 296.02 51 296.262 51.7656C296.504 52.5234 296.625 53.3672 296.625 54.2969V55.7031H286.547V53.4531H293.309V53.1953C293.309 52.7266 293.223 52.3086 293.051 51.9414C292.887 51.5664 292.637 51.2695 292.301 51.0508C291.965 50.832 291.535 50.7227 291.012 50.7227C290.566 50.7227 290.184 50.8203 289.863 51.0156C289.543 51.2109 289.281 51.4844 289.078 51.8359C288.883 52.1875 288.734 52.6016 288.633 53.0781C288.539 53.5469 288.492 54.0625 288.492 54.625V55.0938C288.492 55.6016 288.562 56.0703 288.703 56.5C288.852 56.9297 289.059 57.3008 289.324 57.6133C289.598 57.9258 289.926 58.168 290.309 58.3398C290.699 58.5117 291.141 58.5977 291.633 58.5977C292.242 58.5977 292.809 58.4805 293.332 58.2461C293.863 58.0039 294.32 57.6406 294.703 57.1562L296.344 58.9375C296.078 59.3203 295.715 59.6875 295.254 60.0391C294.801 60.3906 294.254 60.6797 293.613 60.9062C292.973 61.125 292.242 61.2344 291.422 61.2344Z" fill="#888888"/>
<path d="M109.219 107.422H100.734V101.07H109.219C110.375 101.07 111.312 100.875 112.031 100.484C112.75 100.094 113.273 99.5547 113.602 98.8672C113.945 98.1641 114.117 97.375 114.117 96.5C114.117 95.5625 113.945 94.6953 113.602 93.8984C113.273 93.1016 112.75 92.4609 112.031 91.9766C111.312 91.4766 110.375 91.2266 109.219 91.2266H103.828V119H95.6016V84.875H109.219C111.953 84.875 114.305 85.375 116.273 86.375C118.258 87.375 119.781 88.75 120.844 90.5C121.906 92.2344 122.438 94.2188 122.438 96.4531C122.438 98.6562 121.906 100.578 120.844 102.219C119.781 103.859 118.258 105.141 116.273 106.062C114.305 106.969 111.953 107.422 109.219 107.422ZM134.461 99.9219V119H126.562V93.6406H133.945L134.461 99.9219ZM141.961 93.4531L141.82 100.789C141.508 100.758 141.086 100.719 140.555 100.672C140.023 100.625 139.578 100.602 139.219 100.602C138.297 100.602 137.5 100.711 136.828 100.93C136.172 101.133 135.625 101.445 135.188 101.867C134.766 102.273 134.453 102.789 134.25 103.414C134.062 104.039 133.977 104.766 133.992 105.594L132.562 104.656C132.562 102.953 132.727 101.406 133.055 100.016C133.398 98.6094 133.883 97.3984 134.508 96.3828C135.133 95.3516 135.891 94.5625 136.781 94.0156C137.672 93.4531 138.672 93.1719 139.781 93.1719C140.172 93.1719 140.555 93.1953 140.93 93.2422C141.32 93.2891 141.664 93.3594 141.961 93.4531ZM142.852 106.578V106.086C142.852 104.227 143.117 102.516 143.648 100.953C144.18 99.375 144.961 98.0078 145.992 96.8516C147.023 95.6953 148.297 94.7969 149.812 94.1562C151.328 93.5 153.078 93.1719 155.062 93.1719C157.062 93.1719 158.82 93.5 160.336 94.1562C161.867 94.7969 163.148 95.6953 164.18 96.8516C165.211 98.0078 165.992 99.375 166.523 100.953C167.055 102.516 167.32 104.227 167.32 106.086V106.578C167.32 108.422 167.055 110.133 166.523 111.711C165.992 113.273 165.211 114.641 164.18 115.812C163.148 116.969 161.875 117.867 160.359 118.508C158.844 119.148 157.094 119.469 155.109 119.469C153.125 119.469 151.367 119.148 149.836 118.508C148.305 117.867 147.023 116.969 145.992 115.812C144.961 114.641 144.18 113.273 143.648 111.711C143.117 110.133 142.852 108.422 142.852 106.578ZM150.75 106.086V106.578C150.75 107.531 150.82 108.422 150.961 109.25C151.102 110.078 151.336 110.805 151.664 111.43C151.992 112.039 152.438 112.516 153 112.859C153.562 113.203 154.266 113.375 155.109 113.375C155.938 113.375 156.625 113.203 157.172 112.859C157.734 112.516 158.18 112.039 158.508 111.43C158.836 110.805 159.07 110.078 159.211 109.25C159.352 108.422 159.422 107.531 159.422 106.578V106.086C159.422 105.164 159.352 104.297 159.211 103.484C159.07 102.656 158.836 101.93 158.508 101.305C158.18 100.664 157.734 100.164 157.172 99.8047C156.609 99.4453 155.906 99.2656 155.062 99.2656C154.234 99.2656 153.539 99.4453 152.977 99.8047C152.43 100.164 151.992 100.664 151.664 101.305C151.336 101.93 151.102 102.656 150.961 103.484C150.82 104.297 150.75 105.164 150.75 106.086ZM171.422 93.6406H179.344V119.82C179.344 121.852 178.953 123.562 178.172 124.953C177.391 126.359 176.273 127.422 174.82 128.141C173.367 128.875 171.633 129.242 169.617 129.242C168.945 129.242 168.328 129.211 167.766 129.148C167.188 129.102 166.555 129 165.867 128.844V122.867C166.273 122.93 166.648 122.977 166.992 123.008C167.336 123.055 167.711 123.078 168.117 123.078C168.836 123.078 169.438 122.961 169.922 122.727C170.406 122.492 170.773 122.133 171.023 121.648C171.289 121.164 171.422 120.555 171.422 119.82V93.6406ZM170.836 87.1016C170.836 85.9766 171.242 85.0547 172.055 84.3359C172.867 83.6172 173.922 83.2578 175.219 83.2578C176.516 83.2578 177.57 83.6172 178.383 84.3359C179.195 85.0547 179.602 85.9766 179.602 87.1016C179.602 88.2266 179.195 89.1484 178.383 89.8672C177.57 90.5859 176.516 90.9453 175.219 90.9453C173.922 90.9453 172.867 90.5859 172.055 89.8672C171.242 89.1484 170.836 88.2266 170.836 87.1016ZM196.102 119.469C194.039 119.469 192.195 119.148 190.57 118.508C188.945 117.852 187.57 116.953 186.445 115.812C185.336 114.672 184.484 113.359 183.891 111.875C183.312 110.391 183.023 108.82 183.023 107.164V106.273C183.023 104.414 183.281 102.695 183.797 101.117C184.312 99.5234 185.078 98.1328 186.094 96.9453C187.109 95.7578 188.383 94.8359 189.914 94.1797C191.445 93.5078 193.227 93.1719 195.258 93.1719C197.055 93.1719 198.664 93.4609 200.086 94.0391C201.508 94.6172 202.711 95.4453 203.695 96.5234C204.695 97.6016 205.453 98.9062 205.969 100.438C206.5 101.969 206.766 103.688 206.766 105.594V108.805H186.047V103.859H199.055V103.25C199.07 102.406 198.922 101.688 198.609 101.094C198.312 100.5 197.875 100.047 197.297 99.7344C196.719 99.4219 196.016 99.2656 195.188 99.2656C194.328 99.2656 193.617 99.4531 193.055 99.8281C192.508 100.203 192.078 100.719 191.766 101.375C191.469 102.016 191.258 102.758 191.133 103.602C191.008 104.445 190.945 105.336 190.945 106.273V107.164C190.945 108.102 191.07 108.953 191.32 109.719C191.586 110.484 191.961 111.141 192.445 111.688C192.945 112.219 193.539 112.633 194.227 112.93C194.93 113.227 195.727 113.375 196.617 113.375C197.695 113.375 198.758 113.172 199.805 112.766C200.852 112.359 201.75 111.688 202.5 110.75L206.086 115.016C205.57 115.75 204.836 116.461 203.883 117.148C202.945 117.836 201.82 118.398 200.508 118.836C199.195 119.258 197.727 119.469 196.102 119.469ZM220.688 113.375C221.422 113.375 222.047 113.242 222.562 112.977C223.094 112.695 223.492 112.305 223.758 111.805C224.039 111.289 224.172 110.672 224.156 109.953H231.586C231.602 111.859 231.133 113.531 230.18 114.969C229.242 116.391 227.961 117.5 226.336 118.297C224.727 119.078 222.906 119.469 220.875 119.469C218.891 119.469 217.156 119.148 215.672 118.508C214.188 117.852 212.945 116.945 211.945 115.789C210.961 114.617 210.219 113.25 209.719 111.688C209.234 110.125 208.992 108.43 208.992 106.602V106.062C208.992 104.234 209.234 102.539 209.719 100.977C210.219 99.3984 210.961 98.0312 211.945 96.875C212.945 95.7031 214.18 94.7969 215.648 94.1562C217.133 93.5 218.859 93.1719 220.828 93.1719C222.938 93.1719 224.797 93.5703 226.406 94.3672C228.031 95.1641 229.305 96.3203 230.227 97.8359C231.148 99.3516 231.602 101.188 231.586 103.344H224.156C224.172 102.578 224.055 101.891 223.805 101.281C223.555 100.672 223.164 100.188 222.633 99.8281C222.117 99.4531 221.453 99.2656 220.641 99.2656C219.828 99.2656 219.172 99.4453 218.672 99.8047C218.172 100.164 217.789 100.664 217.523 101.305C217.273 101.93 217.102 102.648 217.008 103.461C216.93 104.273 216.891 105.141 216.891 106.062V106.602C216.891 107.539 216.93 108.422 217.008 109.25C217.102 110.062 217.281 110.781 217.547 111.406C217.812 112.016 218.195 112.5 218.695 112.859C219.195 113.203 219.859 113.375 220.688 113.375ZM248.32 93.6406V99.125H233.039V93.6406H248.32ZM236.25 87.3359H244.148V110.727C244.148 111.398 244.227 111.922 244.383 112.297C244.539 112.656 244.805 112.914 245.18 113.07C245.57 113.211 246.086 113.281 246.727 113.281C247.18 113.281 247.555 113.273 247.852 113.258C248.148 113.227 248.43 113.188 248.695 113.141V118.789C248.023 119.008 247.32 119.172 246.586 119.281C245.852 119.406 245.07 119.469 244.242 119.469C242.555 119.469 241.109 119.203 239.906 118.672C238.719 118.141 237.812 117.305 237.188 116.164C236.562 115.023 236.25 113.539 236.25 111.711V87.3359ZM274.875 119H267.305L267.352 112.672H274.875C276.438 112.672 277.758 112.297 278.836 111.547C279.93 110.797 280.758 109.68 281.32 108.195C281.898 106.695 282.188 104.852 282.188 102.664V101.188C282.188 99.5469 282.023 98.1094 281.695 96.875C281.383 95.625 280.914 94.5859 280.289 93.7578C279.664 92.9141 278.883 92.2812 277.945 91.8594C277.023 91.4375 275.961 91.2266 274.758 91.2266H267.164V84.875H274.758C277.07 84.875 279.188 85.2734 281.109 86.0703C283.047 86.8516 284.719 87.9766 286.125 89.4453C287.547 90.8984 288.641 92.625 289.406 94.625C290.188 96.6094 290.578 98.8125 290.578 101.234V102.664C290.578 105.07 290.188 107.273 289.406 109.273C288.641 111.273 287.555 113 286.148 114.453C284.742 115.906 283.078 117.031 281.156 117.828C279.25 118.609 277.156 119 274.875 119ZM272.016 84.875V119H263.789V84.875H272.016ZM306.773 119.469C304.711 119.469 302.867 119.148 301.242 118.508C299.617 117.852 298.242 116.953 297.117 115.812C296.008 114.672 295.156 113.359 294.562 111.875C293.984 110.391 293.695 108.82 293.695 107.164V106.273C293.695 104.414 293.953 102.695 294.469 101.117C294.984 99.5234 295.75 98.1328 296.766 96.9453C297.781 95.7578 299.055 94.8359 300.586 94.1797C302.117 93.5078 303.898 93.1719 305.93 93.1719C307.727 93.1719 309.336 93.4609 310.758 94.0391C312.18 94.6172 313.383 95.4453 314.367 96.5234C315.367 97.6016 316.125 98.9062 316.641 100.438C317.172 101.969 317.438 103.688 317.438 105.594V108.805H296.719V103.859H309.727V103.25C309.742 102.406 309.594 101.688 309.281 101.094C308.984 100.5 308.547 100.047 307.969 99.7344C307.391 99.4219 306.688 99.2656 305.859 99.2656C305 99.2656 304.289 99.4531 303.727 99.8281C303.18 100.203 302.75 100.719 302.438 101.375C302.141 102.016 301.93 102.758 301.805 103.602C301.68 104.445 301.617 105.336 301.617 106.273V107.164C301.617 108.102 301.742 108.953 301.992 109.719C302.258 110.484 302.633 111.141 303.117 111.688C303.617 112.219 304.211 112.633 304.898 112.93C305.602 113.227 306.398 113.375 307.289 113.375C308.367 113.375 309.43 113.172 310.477 112.766C311.523 112.359 312.422 111.688 313.172 110.75L316.758 115.016C316.242 115.75 315.508 116.461 314.555 117.148C313.617 117.836 312.492 118.398 311.18 118.836C309.867 119.258 308.398 119.469 306.773 119.469ZM333.938 111.875C333.938 111.438 333.789 111.062 333.492 110.75C333.211 110.422 332.711 110.125 331.992 109.859C331.273 109.578 330.266 109.297 328.969 109.016C327.734 108.75 326.57 108.398 325.477 107.961C324.398 107.523 323.453 106.992 322.641 106.367C321.828 105.742 321.188 105 320.719 104.141C320.266 103.281 320.039 102.297 320.039 101.188C320.039 100.109 320.266 99.0938 320.719 98.1406C321.188 97.1719 321.867 96.3203 322.758 95.5859C323.664 94.8359 324.766 94.25 326.062 93.8281C327.359 93.3906 328.836 93.1719 330.492 93.1719C332.773 93.1719 334.742 93.5234 336.398 94.2266C338.055 94.9141 339.328 95.8828 340.219 97.1328C341.125 98.3672 341.578 99.7969 341.578 101.422H333.68C333.68 100.781 333.57 100.234 333.352 99.7812C333.148 99.3281 332.812 98.9844 332.344 98.75C331.875 98.5 331.25 98.375 330.469 98.375C329.922 98.375 329.422 98.4766 328.969 98.6797C328.531 98.8828 328.18 99.1641 327.914 99.5234C327.648 99.8828 327.516 100.305 327.516 100.789C327.516 101.133 327.594 101.445 327.75 101.727C327.922 101.992 328.18 102.242 328.523 102.477C328.867 102.695 329.305 102.898 329.836 103.086C330.367 103.258 331.008 103.414 331.758 103.555C333.461 103.867 335.055 104.312 336.539 104.891C338.023 105.469 339.227 106.289 340.148 107.352C341.086 108.414 341.555 109.844 341.555 111.641C341.555 112.766 341.297 113.805 340.781 114.758C340.266 115.695 339.523 116.523 338.555 117.242C337.586 117.945 336.422 118.492 335.062 118.883C333.703 119.273 332.172 119.469 330.469 119.469C328.047 119.469 326 119.039 324.328 118.18C322.656 117.305 321.391 116.211 320.531 114.898C319.688 113.57 319.266 112.227 319.266 110.867H326.625C326.656 111.648 326.844 112.289 327.188 112.789C327.547 113.289 328.023 113.656 328.617 113.891C329.211 114.125 329.898 114.242 330.68 114.242C331.398 114.242 331.992 114.141 332.461 113.938C332.945 113.734 333.312 113.461 333.562 113.117C333.812 112.758 333.938 112.344 333.938 111.875ZM355.969 113.375C356.703 113.375 357.328 113.242 357.844 112.977C358.375 112.695 358.773 112.305 359.039 111.805C359.32 111.289 359.453 110.672 359.438 109.953H366.867C366.883 111.859 366.414 113.531 365.461 114.969C364.523 116.391 363.242 117.5 361.617 118.297C360.008 119.078 358.188 119.469 356.156 119.469C354.172 119.469 352.438 119.148 350.953 118.508C349.469 117.852 348.227 116.945 347.227 115.789C346.242 114.617 345.5 113.25 345 111.688C344.516 110.125 344.273 108.43 344.273 106.602V106.062C344.273 104.234 344.516 102.539 345 100.977C345.5 99.3984 346.242 98.0312 347.227 96.875C348.227 95.7031 349.461 94.7969 350.93 94.1562C352.414 93.5 354.141 93.1719 356.109 93.1719C358.219 93.1719 360.078 93.5703 361.688 94.3672C363.312 95.1641 364.586 96.3203 365.508 97.8359C366.43 99.3516 366.883 101.188 366.867 103.344H359.438C359.453 102.578 359.336 101.891 359.086 101.281C358.836 100.672 358.445 100.188 357.914 99.8281C357.398 99.4531 356.734 99.2656 355.922 99.2656C355.109 99.2656 354.453 99.4453 353.953 99.8047C353.453 100.164 353.07 100.664 352.805 101.305C352.555 101.93 352.383 102.648 352.289 103.461C352.211 104.273 352.172 105.141 352.172 106.062V106.602C352.172 107.539 352.211 108.422 352.289 109.25C352.383 110.062 352.562 110.781 352.828 111.406C353.094 112.016 353.477 112.5 353.977 112.859C354.477 113.203 355.141 113.375 355.969 113.375ZM378.211 99.9219V119H370.312V93.6406H377.695L378.211 99.9219ZM385.711 93.4531L385.57 100.789C385.258 100.758 384.836 100.719 384.305 100.672C383.773 100.625 383.328 100.602 382.969 100.602C382.047 100.602 381.25 100.711 380.578 100.93C379.922 101.133 379.375 101.445 378.938 101.867C378.516 102.273 378.203 102.789 378 103.414C377.812 104.039 377.727 104.766 377.742 105.594L376.312 104.656C376.312 102.953 376.477 101.406 376.805 100.016C377.148 98.6094 377.633 97.3984 378.258 96.3828C378.883 95.3516 379.641 94.5625 380.531 94.0156C381.422 93.4531 382.422 93.1719 383.531 93.1719C383.922 93.1719 384.305 93.1953 384.68 93.2422C385.07 93.2891 385.414 93.3594 385.711 93.4531ZM396.773 93.6406V119H388.852V93.6406H396.773ZM388.383 87.1016C388.383 85.9766 388.789 85.0547 389.602 84.3359C390.414 83.6172 391.469 83.2578 392.766 83.2578C394.062 83.2578 395.117 83.6172 395.93 84.3359C396.742 85.0547 397.148 85.9766 397.148 87.1016C397.148 88.2266 396.742 89.1484 395.93 89.8672C395.117 90.5859 394.062 90.9453 392.766 90.9453C391.469 90.9453 390.414 90.5859 389.602 89.8672C388.789 89.1484 388.383 88.2266 388.383 87.1016ZM409.617 98.5156V128.75H401.719V93.6406H409.078L409.617 98.5156ZM425.18 106.016V106.508C425.18 108.352 424.969 110.062 424.547 111.641C424.125 113.219 423.5 114.594 422.672 115.766C421.844 116.938 420.812 117.852 419.578 118.508C418.359 119.148 416.945 119.469 415.336 119.469C413.82 119.469 412.516 119.133 411.422 118.461C410.328 117.789 409.414 116.859 408.68 115.672C407.945 114.484 407.352 113.125 406.898 111.594C406.445 110.062 406.086 108.445 405.82 106.742V106.109C406.086 104.281 406.445 102.586 406.898 101.023C407.352 99.4453 407.945 98.0703 408.68 96.8984C409.414 95.7266 410.32 94.8125 411.398 94.1562C412.492 93.5 413.797 93.1719 415.312 93.1719C416.922 93.1719 418.336 93.4766 419.555 94.0859C420.789 94.6953 421.82 95.5703 422.648 96.7109C423.492 97.8359 424.125 99.1875 424.547 100.766C424.969 102.344 425.18 104.094 425.18 106.016ZM417.281 106.508V106.016C417.281 105.031 417.211 104.133 417.07 103.32C416.93 102.492 416.703 101.773 416.391 101.164C416.094 100.555 415.695 100.086 415.195 99.7578C414.695 99.4297 414.078 99.2656 413.344 99.2656C412.5 99.2656 411.789 99.3984 411.211 99.6641C410.648 99.9141 410.195 100.305 409.852 100.836C409.523 101.352 409.289 102 409.148 102.781C409.023 103.547 408.969 104.445 408.984 105.477V107.398C408.953 108.586 409.07 109.633 409.336 110.539C409.602 111.43 410.062 112.125 410.719 112.625C411.375 113.125 412.266 113.375 413.391 113.375C414.141 113.375 414.766 113.203 415.266 112.859C415.766 112.5 416.164 112.008 416.461 111.383C416.758 110.742 416.969 110.008 417.094 109.18C417.219 108.352 417.281 107.461 417.281 106.508ZM442.055 93.6406V99.125H426.773V93.6406H442.055ZM429.984 87.3359H437.883V110.727C437.883 111.398 437.961 111.922 438.117 112.297C438.273 112.656 438.539 112.914 438.914 113.07C439.305 113.211 439.82 113.281 440.461 113.281C440.914 113.281 441.289 113.273 441.586 113.258C441.883 113.227 442.164 113.188 442.43 113.141V118.789C441.758 119.008 441.055 119.172 440.32 119.281C439.586 119.406 438.805 119.469 437.977 119.469C436.289 119.469 434.844 119.203 433.641 118.672C432.453 118.141 431.547 117.305 430.922 116.164C430.297 115.023 429.984 113.539 429.984 111.711V87.3359ZM453.539 93.6406V119H445.617V93.6406H453.539ZM445.148 87.1016C445.148 85.9766 445.555 85.0547 446.367 84.3359C447.18 83.6172 448.234 83.2578 449.531 83.2578C450.828 83.2578 451.883 83.6172 452.695 84.3359C453.508 85.0547 453.914 85.9766 453.914 87.1016C453.914 88.2266 453.508 89.1484 452.695 89.8672C451.883 90.5859 450.828 90.9453 449.531 90.9453C448.234 90.9453 447.18 90.5859 446.367 89.8672C445.555 89.1484 445.148 88.2266 445.148 87.1016ZM457.43 106.578V106.086C457.43 104.227 457.695 102.516 458.227 100.953C458.758 99.375 459.539 98.0078 460.57 96.8516C461.602 95.6953 462.875 94.7969 464.391 94.1562C465.906 93.5 467.656 93.1719 469.641 93.1719C471.641 93.1719 473.398 93.5 474.914 94.1562C476.445 94.7969 477.727 95.6953 478.758 96.8516C479.789 98.0078 480.57 99.375 481.102 100.953C481.633 102.516 481.898 104.227 481.898 106.086V106.578C481.898 108.422 481.633 110.133 481.102 111.711C480.57 113.273 479.789 114.641 478.758 115.812C477.727 116.969 476.453 117.867 474.938 118.508C473.422 119.148 471.672 119.469 469.688 119.469C467.703 119.469 465.945 119.148 464.414 118.508C462.883 117.867 461.602 116.969 460.57 115.812C459.539 114.641 458.758 113.273 458.227 111.711C457.695 110.133 457.43 108.422 457.43 106.578ZM465.328 106.086V106.578C465.328 107.531 465.398 108.422 465.539 109.25C465.68 110.078 465.914 110.805 466.242 111.43C466.57 112.039 467.016 112.516 467.578 112.859C468.141 113.203 468.844 113.375 469.688 113.375C470.516 113.375 471.203 113.203 471.75 112.859C472.312 112.516 472.758 112.039 473.086 111.43C473.414 110.805 473.648 110.078 473.789 109.25C473.93 108.422 474 107.531 474 106.578V106.086C474 105.164 473.93 104.297 473.789 103.484C473.648 102.656 473.414 101.93 473.086 101.305C472.758 100.664 472.312 100.164 471.75 99.8047C471.188 99.4453 470.484 99.2656 469.641 99.2656C468.812 99.2656 468.117 99.4453 467.555 99.8047C467.008 100.164 466.57 100.664 466.242 101.305C465.914 101.93 465.68 102.656 465.539 103.484C465.398 104.297 465.328 105.164 465.328 106.086ZM493.172 99.0547V119H485.273V93.6406H492.68L493.172 99.0547ZM492.234 105.453L490.383 105.5C490.383 103.562 490.617 101.836 491.086 100.32C491.555 98.7891 492.219 97.4922 493.078 96.4297C493.938 95.3672 494.961 94.5625 496.148 94.0156C497.352 93.4531 498.688 93.1719 500.156 93.1719C501.328 93.1719 502.398 93.3438 503.367 93.6875C504.352 94.0312 505.195 94.5859 505.898 95.3516C506.617 96.1172 507.164 97.1328 507.539 98.3984C507.93 99.6484 508.125 101.195 508.125 103.039V119H500.18V103.016C500.18 102 500.039 101.227 499.758 100.695C499.477 100.148 499.07 99.7734 498.539 99.5703C498.008 99.3672 497.359 99.2656 496.594 99.2656C495.781 99.2656 495.094 99.4219 494.531 99.7344C493.969 100.047 493.516 100.484 493.172 101.047C492.844 101.594 492.602 102.242 492.445 102.992C492.305 103.742 492.234 104.562 492.234 105.453Z" fill="black"/>
<path d="M1134 0H1348C1356.28 0 1363 6.71573 1363 15V148C1363 156.284 1356.28 163 1348 163H1134V0Z" fill="#F50E1E"/>
<path d="M1234.26 103.786H1262.74V109.357H1234.26V103.786ZM1239.96 114.929H1257.04V120.5H1239.96V114.929ZM1248.5 42.5C1240.95 42.5 1233.71 45.4349 1228.37 50.6592C1223.03 55.8834 1220.03 62.969 1220.03 70.3571C1219.84 74.4057 1220.63 78.4412 1222.34 82.1315C1224.05 85.8219 1226.64 89.0616 1229.88 91.5843C1232.73 94.175 1234.26 95.6514 1234.26 98.2143H1239.96C1239.96 93.0886 1236.8 90.2193 1233.72 87.4614C1231.06 85.4676 1228.94 82.8658 1227.55 79.8838C1226.15 76.9019 1225.53 73.6308 1225.72 70.3571C1225.72 64.4466 1228.12 58.7781 1232.39 54.5988C1236.67 50.4194 1242.46 48.0714 1248.5 48.0714C1254.54 48.0714 1260.33 50.4194 1264.61 54.5988C1268.88 58.7781 1271.28 64.4466 1271.28 70.3571C1271.47 73.6333 1270.84 76.9059 1269.44 79.888C1268.04 82.8701 1265.92 85.4706 1263.25 87.4614C1260.2 90.2471 1257.04 93.0329 1257.04 98.2143H1262.74C1262.74 95.6514 1264.25 94.175 1267.12 91.5564C1270.36 89.0381 1272.94 85.8031 1274.66 82.1176C1276.37 78.4321 1277.16 74.4014 1276.97 70.3571C1276.97 66.6989 1276.24 63.0765 1274.81 59.6967C1273.37 56.3169 1271.28 53.2459 1268.63 50.6592C1265.99 48.0724 1262.85 46.0205 1259.4 44.6205C1255.94 43.2205 1252.24 42.5 1248.5 42.5Z" fill="white"/>
</svg>
